<?xml version="1.0" encoding="UTF-8" standalone="no"?>
<svg
   xmlns:dc="http://purl.org/dc/elements/1.1/"
   xmlns:cc="http://creativecommons.org/ns#"
   xmlns:rdf="http://www.w3.org/1999/02/22-rdf-syntax-ns#"
   xmlns:svg="http://www.w3.org/2000/svg"
   xmlns="http://www.w3.org/2000/svg"
   xmlns:sodipodi="http://sodipodi.sourceforge.net/DTD/sodipodi-0.dtd"
   xmlns:inkscape="http://www.inkscape.org/namespaces/inkscape"
   id="svg2"
   width="512"
   height="512"
   version="1.1"
   viewBox="0 0 512 511.99999"
   xml:space="preserve"
   sodipodi:docname="favicon.svg"
   inkscape:version="0.92.4 5da689c313, 2019-01-14"><metadata
     id="metadata877"><rdf:RDF><cc:Work
         rdf:about=""><dc:format>image/svg+xml</dc:format><dc:type
           rdf:resource="http://purl.org/dc/dcmitype/StillImage" /><dc:title></dc:title></cc:Work></rdf:RDF></metadata><defs
     id="defs875" /><sodipodi:namedview
     pagecolor="#ffffff"
     bordercolor="#666666"
     borderopacity="1"
     objecttolerance="10"
     gridtolerance="10"
     guidetolerance="10"
     inkscape:pageopacity="0"
     inkscape:pageshadow="2"
     inkscape:window-width="1920"
     inkscape:window-height="1054"
     id="namedview873"
     showgrid="false"
     inkscape:zoom="1.6170933"
     inkscape:cx="264.97661"
     inkscape:cy="265.60001"
     inkscape:window-x="2560"
     inkscape:window-y="26"
     inkscape:window-maximized="0"
     inkscape:current-layer="svg2" /><g
     id="g10"
     transform="matrix(1.2843616,0,0,-1.2856905,0.17505379,512.56184)"><g
       id="g12"
       transform="scale(0.1)"
       style="fill-rule:evenodd"><path
         id="path20"
         d="m 1979.5,3986.6 c -261.42,0.5869 -523.54,-48.354 -760.34,-155.73 C 985.09,3724.72 769.15,3579.34 582.51,3402.96 487.436,3313.328 407.64,3207.74 333.55,3100.71 186.35,2888.06 88.19,2636.43 37.5,2384.63 -40.093,2000.22 -0.78,1597.03 149.02,1234.63 298.37,873.18 554.77,559.56 880,341.56 1207.46,122.24 1597.52,4.37 1991.7,4.37 c 394.31,0 784.5,118.03 1111.9,337.26 325.45,217.93 582.02,531.25 731.18,893 150.27,363.85 188.84,769.51 111.2,1155.4 -77.064,382.6 -268.19,737.1 -544.42,1013 -276.49,276.03 -631.81,467.49 -1015.6,543.24 -132.82,26.206 -269.56,40.089 -406.49,40.396 z m 12.048,-381.84 c 228.82,-0.2733 457.7,-47.849 666.23,-142.08 353.87,-159.78 643.09,-449.01 803.32,-802.39 121.71,-268.03 167.14,-567.74 131.08,-859.76 -18.5,-149.59 -57.14,-296.68 -114.76,-435.89 -54.06,-131.25 -136.9,-250.23 -218.3,-365.32 l -2265.3,2261.5 c 80.946,56.79 162.29,115.05 249.65,161.62 229.48,122.21 488.74,182.67 748.07,182.36 z m -1266.7,-612.51 2265,-2264 c -80.773,-56.918 -162.2,-114.89 -249.73,-161.38 -342.95,-182.23 -757.09,-228.39 -1133.5,-137.12 -381.2,92.775 -720.67,325.44 -943.54,647.54 -168.64,243.31 -266.8,532.4 -282.62,827.75 -12.856,245.87 31.157,493.66 125.53,720.94 54.32,131.26 137.31,250.89 218.82,366.28 z"
         inkscape:connector-curvature="0"
         style="fill:#e10026" /><path
         id="path26"
         d="m 2940.6,1317.3 -474.91,474 v 630.15 c 0,125.11 -50.696,246.48 -139.46,334.83 -108.37,108.27 -265.39,158.71 -416.63,132.37 -93.548,-16.323 -181.5,-61.686 -249.82,-127.46 -28.43,-27.45 -51.1,-59.094 -73.597,-91.935 l -340.23,339.69 c 36.839,41.746 74.092,84.033 115.22,121.78 63.794,58.426 137.15,106.2 215.04,143.74 129.15,61.974 271.33,95.115 414.74,95.115 250.31,-0.1612 494.28,-101 671.23,-277.85 177.05,-176.54 278.42,-420.43 278.42,-670.28 v -1104.1"
         inkscape:connector-curvature="0" /><path
         id="path28"
         d="m 1808.2,1909.3 110.37,-110.24 c -2.2347,-6.9231 -4.0432,-13.72 -6.7272,-20.308 -2.2578,-5.5293 -5.679,-10.598 -9.1924,-15.413 l -624.83,-905.81 -626.56,908.27 c -9.6382,14.019 -13.558,34.5 -13.058,51.595 1.2729,44.971 29.631,82.305 74.88,91.406 15.326,3.2139 31.404,2.396 46.235,-2.1426 l 279.57,-85.542 1.3132,600.3 c 0.2534,38.613 2.7301,77.605 7.1765,115.84 4.7805,37.956 12.28,74.921 20.815,112.09 l 448.28,-448.24 v -382.57 l 277.96,88.111 c 1.7279,0.6566 4.9533,0.9907 6.3932,1.4054 2.4651,0.4953 4.8957,0.8294 7.3724,1.2325"
         inkscape:connector-curvature="0" /><path
         id="path30"
         d="M 2860.5,857.57 H 2465.71 V 1252.2 L 2860.5,857.57"
         inkscape:connector-curvature="0" /></g></g></svg>